<svg xmlns="http://www.w3.org/2000/svg" width="960" height="714" fill="currentColor" viewBox="0 0 960 714">
  <path d="M526.045 701.987c2.987-2.987 5.14-2.523 8.812 1.901 2.874 3.461 3.123 4.216 2.116 6.427-1.488 3.264-2.472 3.541-7.871 2.218-4.23-1.037-4.518-1.324-4.807-4.796-.223-2.68.257-4.257 1.75-5.75Zm-34.915-1.095c2.613-1.653 6-1.025 8.624 1.599 1.408 1.408 2.358 2.763 2.11 3.01-.247.248-2.433-.237-4.856-1.077-8.003-2.774-7.528-2.489-5.878-3.532Zm-17.528-17.767c3.109-1.764 5.377-1.409 8.044 1.26 4.654 4.653 1.839 11.545-4.715 11.545-4.146 0-6.833-2.526-6.814-6.405.018-3.569.699-4.82 3.485-6.4Zm34.5.805c2.702-2.703 6.572-2.518 9.544.455 2.989 2.988 3.143 6.431.416 9.356-2.456 2.636-7.514 2.903-10.131.534-2.474-2.239-2.383-7.791.171-10.345Zm-17.826-17.686c2.812-2.992 6.291-2.94 9.37.141 4.654 4.653 1.839 11.545-4.715 11.545-6.414 0-9.159-6.891-4.655-11.686Zm-36.174-.314c2.702-2.703 6.572-2.518 9.544.455 2.973 2.973 3.159 6.842.456 9.545-2.445 2.445-7.655 2.622-10.171.345-2.474-2.239-2.383-7.791.171-10.345Zm-34-1.193c0-1.794 5.249-.648 7.544 1.648 2.136 2.135 3.357 5.545 1.985 5.545-1.009-.001-9.527-6.43-9.529-7.193Zm17.5-17.612c3.109-1.764 5.377-1.409 8.044 1.26 4.654 4.653 1.839 11.545-4.715 11.545-4.146 0-6.833-2.526-6.814-6.405.018-3.569.699-4.82 3.485-6.4Zm35.135.878c3.46-2.722 5.912-2.617 8.909.382 4.654 4.653 1.839 11.545-4.715 11.545-6.742 0-9.475-7.773-4.194-11.927Zm-71.385-.853c3.558-1.716 5.657-1.404 8.294 1.235 2.515 2.514 3.128 5.934 1.519 8.477-.733 1.158-1.974.609-6.485-2.871-3.068-2.368-5.578-4.631-5.578-5.03s1.012-1.214 2.25-1.811Zm26.601-107.965c.073.698.161 1.464.264 2.309 1.044 8.571 3.997 22.093 6.471 29.637 1.436 4.381 1.708 4.638 3.978 3.775 4.656-1.771 9.435 1.805 9.436 7.057 0 1.191-1.381 3.454-3.068 5.031l-3.069 2.866 3.671 6.564c5.185 9.272 11.601 17.716 16.376 21.554 2.249 1.808 4.09 3.745 4.09 4.305 0 .56 1.013 2.115 2.25 3.457 2.124 2.302 2.137 2.404.236 1.822-2.453-.75-4.781 2.292-3.41 4.457 2.666 4.212-.812 10.244-5.907 10.244-4.179 0-7.169-2.833-7.169-6.794v-3.151l-10.919-1.741c-6.005-.958-15.6-2.997-21.321-4.532-6.914-1.855-11.137-2.52-12.592-1.982-2.627.972-6.46-.327-8.317-2.82-.743-.997-6.301-3.788-12.351-6.202-6.05-2.415-14.915-6.345-19.7-8.735-5.516-2.756-8.939-3.959-9.355-3.288-.406.658-1.163.332-1.999-.861-.739-1.056-5.755-4.53-11.145-7.719-13.133-7.771-25.851-16.736-37.703-26.465.433-.235.864-.477 1.289-.73a42.096 42.096 0 0 0 11.247-9.139c.168-.178.333-.358.498-.539a136.23 136.23 0 0 0 2.868 2.353c21.438 17.045 52.286 34.301 77.5 43.354 11.266 4.045 27.182 8.657 29.874 8.658.573 0-1.867-4.289-5.421-9.532-11.082-16.344-18.355-32.66-22.382-50.693 3.884-1.7 7.519-3.315 10.898-4.851 5.266-2.331 10.247-4.877 14.882-7.669Zm62.856 90.761c1.896-1.491 3.468-1.941 5.25-1.502 3.54.873 3.939 1.446 4.657 6.687.604 4.404.491 4.694-2.427 6.202-7.69 3.977-14.272-6.044-7.48-11.387Zm-72 0c3.166-2.49 6.844-2.052 9.543 1.137 3.742 4.423.81 10.894-5.011 11.059-6.981.199-9.992-7.902-4.532-12.196Zm-35.77-.145c5.725-4.684 13.594 2.531 10.028 9.195-1.553 2.901-3.102 2.392-8.007-2.634l-4.458-4.568 2.437-1.993Zm89.77-17.855c6.469-5.088 14.856 3.552 9.543 9.831-4.361 5.152-12.25 2.353-12.25-4.347 0-2.456.725-3.925 2.707-5.484Zm-107.184-.656c2.745-2.008 5.264-1.664 8.021 1.095 2.758 2.757 3.152 6.211 1.037 9.104-1.389 1.899-1.478 1.887-4.098-.559-1.473-1.375-3.61-3.801-4.749-5.39-2.008-2.805-2.015-2.932-.211-4.25Zm89.184-17.344c6.982-5.492 15.14 4.227 8.837 10.529-2.997 2.998-5.449 3.104-8.909.382-3.678-2.893-3.644-7.988.072-10.911Zm35.946.042c2.976-2.341 6.605-2.143 9.311.508 1.284 1.257 1.253 1.434-.25 1.434-1.387 0-1.714.941-1.714 4.933 0 4.147-.337 5.039-2.12 5.605-3.304 1.049-7.316-2.488-7.684-6.773-.246-2.867.219-3.946 2.457-5.707Zm72.711-.888c2.808-1.36 3.118-1.363 5.979-.06 1.34.611 2.906 2.141 3.479 3.399.96 2.107.778 2.319-2.282 2.676-1.829.214-5.144.215-7.366.003-3.81-.363-3.981-.517-2.994-2.685.577-1.264 2.009-2.765 3.184-3.333Zm-33.259-1.17c2.317 0 6.684 3.086 7.209 5.092.549 2.102.357 2.155-5.929 1.651-3.573-.287-6.809-.835-7.191-1.217-.382-.383.569-1.783 2.112-3.111 1.543-1.328 3.253-2.415 3.799-2.415Zm69.395 1.195c2.53-1.435 2.872-1.438 5.898-.06 2.147.979 4.212 3.663 3.376 4.388-.151.131-3.086.432-6.524.671-6.122.425-7.262-.153-5.485-2.779.404-.597 1.635-1.596 2.735-2.22Zm35.5.305c2.883-1.648 3.279-1.714 5.412-.895 2.746 1.053.628 2.397-3.721 2.361-4.137-.035-4.159-.055-1.691-1.466Zm-160-18.781c3.874-1.398 8.999 2.553 9 6.937 0 2.9-4.127 7.343-6.82 7.344-1.051 0-3.096-.933-4.545-2.073-4.474-3.518-3.179-10.205 2.365-12.208Zm36 0c3.874-1.398 8.999 2.553 9 6.937 0 2.9-4.127 7.343-6.82 7.344-1.051 0-3.096-.933-4.545-2.073-4.474-3.518-3.179-10.205 2.365-12.208Zm70.851.484c6.397-2.166 11.788 3.727 8.763 9.577-4.131 7.988-16.001 2.398-12.558-5.914.63-1.522 2.338-3.17 3.795-3.663Zm35.47-.014c2.86-1.383 3.153-1.386 6.064-.059 1.364.621 2.981 2.338 3.593 3.816 3.415 8.245-8.492 13.762-12.592 5.834-1.859-3.595-.538-7.912 2.935-9.591Zm36 0c2.86-1.383 3.153-1.386 6.064-.059 8.225 3.747 2.741 16.149-5.719 12.933-5.338-2.029-5.561-10.352-.345-12.874Zm-107.957-.019c2.812-1.362 3.116-1.364 6.021-.04 5.484 2.498 5.451 10.841-.051 12.933-8.291 3.152-13.935-9.037-5.97-12.893Zm143.653.123c4.452-2.24 9.983.998 9.983 5.843 0 2.267-.545 2.948-2.75 3.442-1.513.339-4.236.993-6.052 1.453-2.936.744-3.426.563-4.429-1.638-1.492-3.274.005-7.469 3.248-9.1Zm35.645.325c3.166-1.716 4.666-1.957 5.707-.915.387.386-1.208 1.267-3.543 1.956-5.11 1.509-6.042 1.061-2.164-1.041Zm-271.007-16.789c3.793-4.192 12.344-.924 12.345 4.716 0 2.842-4.035 7.455-6.52 7.455-1.964 0-5.712-1.898-6.715-3.4-1.309-1.96-.808-6.895.89-8.771Zm227.581 4.773c-.168 3.899-3.66 7.398-7.829 7.398-2.131 0-6.407-4.551-6.407-6.82 0-.04.004-.083.006-.127h7.833c2.172 0 4.318-.171 6.397-.451Zm-77.233.451h5.518c-.107 5.131-6.459 9.35-11.368 5.197-3.189-2.699-3.627-6.377-1.137-9.543a9.651 9.651 0 0 1 1.022-1.123l5.965 5.469Zm-113.184-6.136a90.834 90.834 0 0 0 9.844 1.846c1.982 2.635 1.585 6.078-1.119 8.782-2.997 2.998-5.449 3.104-8.909.382-3.093-2.433-3.56-7.247-.98-10.098.324-.359.72-.661 1.164-.912Zm214.181 1.083c2.309-2.31 7.085-2.594 9.728-.7l.894.82c2.289 2.662 1.753 7.44-1.257 9.807-3.46 2.722-5.912 2.617-8.91-.382-2.646-2.647-3.083-6.002-1.241-8.614l.54-.082.201-.803.045-.046Zm47.868 2.446c.851 2.576-.017 5.674-3.118 7.565-4.207 2.565-5.328 2.502-8.295-.466-1.483-1.483-2.272-3.188-2.356-4.861a63.349 63.349 0 0 0 5.97-1.038l7.799-1.2Zm-108.446-1.315c1.015 1.417 1.487 3.148 1.092 4.826-.917 3.893-4.369 6.322-7.963 5.603-4.814-.962-7.146-4.7-5.855-8.472l12.726-1.957Zm-108.708-1.25c5.041 5.648-.535 14.093-7.682 11.132-3.97-1.644-5.331-6.188-3.313-9.824 1.871-.15 3.737-.339 5.597-.571 1.849-.231 3.65-.478 5.398-.737Zm30.786-1.881c6.305 0 9.379 7.425 4.948 11.95-.78.797-3.007 1.45-4.948 1.45-6.239 0-9.261-5.892-5.484-10.693 1.559-1.982 3.028-2.707 5.484-2.707Zm212.75.031c3.211-1.291 3.521-1.173 1.309.501-1.967 1.488-3.559 1.906-3.559.936 0-.293 1.013-.939 2.25-1.437Zm-191.171-6.15.744.464c-1.957 1.586-4.695 2.183-7.255.858a89.286 89.286 0 0 0 5.65-1.819c.134-.048.267-.098.401-.147l.46.644Zm-152.424-10.052c2.239-2.474 7.79-2.383 10.345.171 2.703 2.703 2.517 6.572-.456 9.545s-6.841 3.158-9.544.455c-2.445-2.445-2.622-7.655-.345-10.171Zm35.035 7.948a47.138 47.138 0 0 0 6.364 4.104c-1.67.139-3.338-.497-4.865-1.92-.642-.598-1.142-1.35-1.499-2.184Zm300.289-2.269c-.267 2.564-3.289 5.689-5.98 6.359l.367-1.467a33.255 33.255 0 0 0 5.613-4.892Zm29.021-7.508c2.883 0 4.289.574 5.443 2.223 2.396 3.42 1.979 4.153-4.044 7.107-4.369 2.143-5.909 2.492-7 1.586-1.857-1.541-1.777-5.931.158-8.693 1.154-1.649 2.56-2.223 5.443-2.223Zm-18-18c6.233 0 9.156 7.076 4.826 11.686-2.522 2.683-5.937 2.933-8.811.734l1.074-3.222v-2.749l1.384-4.151.105-.348c.185-.617.394-1.246.628-1.889.273-.039.54-.061.794-.061Zm36 0c6.52 0 9.355 6.864 4.826 11.686-2.73 2.905-6.509 2.96-9.512.14-2.679-2.517-2.987-6.421-.757-9.603 1.154-1.649 2.56-2.223 5.443-2.223Zm-363.985 12.014-.015-.014c-2.297-2.298-2.593-7.036-.732-9.687l.747 9.701Zm345.985-30.014c6.233 0 9.156 7.076 4.826 11.686-2.73 2.905-6.509 2.96-9.512.14-2.87-2.697-3.012-7.128-.314-9.826 1.11-1.111 3.333-2 5-2Zm36 0c6.233 0 9.156 7.076 4.826 11.686-2.73 2.905-6.509 2.96-9.512.14-2.87-2.697-3.012-7.128-.314-9.826 1.11-1.111 3.333-2 5-2Zm31 2c1.648-1.649 5.999-2.858 6-1.667 0 .183-1.8 1.779-4 3.547-2.891 2.323-4 2.785-4 1.667 0-.852.9-2.448 2-3.547Zm-49-20c2.883 0 4.289.574 5.443 2.223 5.074 7.244-3.843 15.712-10.254 9.738-2.568-2.392-2.84-6.587-.632-9.738 1.154-1.649 2.56-2.223 5.443-2.223Zm-36 0c6.52 0 9.355 6.864 4.826 11.686-1.578 1.679-3.506 2.404-5.433 2.174a80.639 80.639 0 0 0-.27-1.128l-.639-2.556-3.956-7.911.029-.042c1.154-1.649 2.56-2.223 5.443-2.223Zm72 0c6.52 0 9.355 6.864 4.826 11.686-2.73 2.905-6.509 2.96-9.512.14-2.679-2.517-2.987-6.421-.757-9.603 1.154-1.649 2.56-2.223 5.443-2.223Zm30.655 1.829c1.7-1.878 8.344-2.613 8.345-.922 0 .499-2.25 2.791-5 5.093l-5 4.186v-3.264c0-1.796.745-4.087 1.655-5.093Zm-90.098-17.606c3.466-4.949 12.443-1.555 12.443 4.704-.001 3.162-3.872 7.073-7 7.073-.952-.001-2.916-.933-4.365-2.073-3.032-2.385-3.467-6.295-1.078-9.704Zm77-2.223c6.973 0 10.103 7.763 4.808 11.927-3.378 2.658-6.147 2.626-9.051-.101-2.679-2.517-2.987-6.421-.757-9.603 1.096-1.565 2.575-2.223 5-2.223Zm-35.557 0c6.233 0 9.156 7.076 4.826 11.686-2.693 2.866-5.753 2.946-9.191.241-3.224-2.535-3.513-7.049-.635-9.927 1.11-1.111 3.333-2 5-2Zm-185.385 12.852c-3.314-1.949-6.753-3.194-10.058-3.948a490.71 490.71 0 0 0 16.561-5.445l-6.503 9.393ZM598.773 30.237c81.237 18.153 155.768 49.985 203.329 88.701 4.125 3.357 11.775 9.388 17 13.402 43.253 33.229 70.154 70.712 79.008 110.09 1.237 5.5 2.411 10.585 2.608 11.3.259.936.977.727 2.56-.75 2.937-2.735 6.377-2.588 9.368.405 2.974 2.973 3.159 6.842.456 9.545-2.239 2.239-7.899 2.701-9.8.8-.933-.933-1.2 1.741-1.2 12.035 0 12.776.067 13.199 1.934 12.2 7.192-3.849 14.51 4.89 9.026 10.776-2.566 2.755-7.297 2.852-9.945.204-1.979-1.979-1.986-1.979-2.434.25-2.149 10.677-6.295 25.728-9.018 32.735-3.252 8.365-3.27 8.505-1.184 8.838 3.214.512 6.621 4.189 6.621 7.148 0 6.002-7.76 9.254-11.989 5.025-1.985-1.985-1.993-1.98-4.428 2.825-1.854 3.658-2.309 5.788-1.895 8.873.437 3.26.128 4.475-1.572 6.175-1.164 1.164-3.209 2.116-4.544 2.116-1.795 0-3.622 1.569-7 6.011-2.515 3.306-4.572 6.401-4.572 6.877-.006.925-24.891 25.705-31.301 31.169-2.091 1.782-4.454 4.502-5.252 6.045-.917 1.773-2.7 3.15-4.846 3.743-1.868.515-5.45 2.449-7.96 4.296-3.585 2.639-4.571 3.988-4.602 6.295-.021 1.614-1.017 3.977-2.213 5.25-2.266 2.412-7.194 3.146-8.368 1.246-.792-1.282-2.025-.861-7.374 2.515-4.063 2.565-4.066 2.572-2.076 4.561 4.033 4.034.802 11.991-4.868 11.992-2.947 0-7.14-3.586-7.14-6.106 0-2.066-22.275 8.366-33.776 15.051l-19.401-10.447-12.708 18.354c-4.162-2.448-8.52-3.788-12.564-4.435a71.653 71.653 0 0 1-5.439-1.388l-1.022-.301-1.044-.209-.847-.165a129.91 129.91 0 0 0-4.196-.72l-13.282-7.153c47.492-18.215 88.939-43.088 122.998-74.093a221.664 221.664 0 0 0 24.368-26.057l.501-.318 1.133-.933a24.942 24.942 0 0 1 4.727-3.061 48.403 48.403 0 0 0 13.873-10.395c3.517-2.689 6.362-5.884 8.612-9.258l.242-.362.229-.372a57.573 57.573 0 0 0 5.579-11.989l.071-.215.068-.216a69.968 69.968 0 0 0 2.657-12.182l.011-.086.01-.087c.527-4.478.604-9.184-.077-13.948l-.064-.45-.081-.449-.234-1.205a57.12 57.12 0 0 0-1.202-4.794c.098-.377.197-.754.292-1.131 3.847-15.256 4.899-25.657 4.238-41.88-.879-21.571-4.712-36.823-14.201-56.5-9.149-18.971-18.561-31.52-37.224-49.627-33.662-32.659-83.022-60.05-146.747-81.434-19.907-6.68-39.244-12.289-58.47-16.917a83.049 83.049 0 0 1-1.408-4.127c-.196-.627-.531-2.04-.756-4.515l-.734-8.07-.461-.503ZM759.102 468.93c4.484-4.484 11.999-1.41 12 4.908 0 2.048-1.586 4.468-3.488 5.886-3.277-1.913-6.673-3.14-9.939-3.887-.808-2.327-.495-4.985 1.427-6.907Zm143.655-.171c1.589-1.757 8.343-2.66 8.345-1.117 0 .985-8.232 9.288-9.208 9.288-1.473-.001-.804-6.329.863-8.171Zm-18.098-17.606c3.337-4.765 12.442-1.602 12.443 4.322 0 3.141-4.132 7.455-7.14 7.455-3.09 0-6.86-3.82-6.86-6.952 0-1.432.701-3.603 1.557-4.825Zm-66.557-2.223c6.233 0 9.156 7.076 4.826 11.686-2.73 2.905-6.509 2.96-9.512.14-2.87-2.697-3.012-7.128-.314-9.826 1.11-1.111 3.333-2 5-2Zm36 0c6.233 0 9.156 7.076 4.826 11.686-2.73 2.905-6.509 2.96-9.512.14-2.87-2.697-3.012-7.128-.314-9.826 1.11-1.111 3.333-2 5-2Zm66.655 1.829c1.65-1.823 4.37-2.503 4.317-1.079-.015.413-1.365 2.518-3 4.678l-2.972 3.928v-2.848c0-1.567.745-3.673 1.655-4.679ZM63.083 351.16l.589.082.687.098a176.05 176.05 0 0 0 5.952 12.176l-1.842 5.989 6.948 2.894c10.42 16.993 23.888 32.669 40.072 46.248 11.455 9.611 24.28 18.13 38.208 25.446-3.134 4.374-5.835 9.04-8.129 13.956-25.296-13.563-48.874-31.5-65.143-50.014-10.822-12.316-19.883-25.29-27.157-38.738a37.89 37.89 0 0 0 2.736-2.949l2.684-3.222 4.233-11.639-.03-.353.192.026Zm839.674 81.599c3.784-4.182 12.345-.78 12.345 4.905 0 3.116-4.258 7.266-7.456 7.266-5.529-.001-8.719-7.939-4.889-12.171Zm-66.655-1.829c6.233 0 9.156 7.076 4.826 11.686-2.73 2.905-6.509 2.96-9.512.14-2.87-2.697-3.012-7.128-.314-9.826 1.11-1.111 3.333-2 5-2Zm36 0c6.233 0 9.156 7.076 4.826 11.686-2.73 2.905-6.509 2.96-9.512.14-2.87-2.697-3.012-7.128-.314-9.826 1.11-1.111 3.333-2 5-2Zm49.223-16.443c3.409-2.389 7.319-1.954 9.704 1.078 1.14 1.449 2.072 3.413 2.073 4.365 0 3.129-3.911 6.999-7.073 7-6.259 0-9.653-8.977-4.704-12.443Zm-36.223.443c2.618-2.618 6.793-2.543 9.686.174 2.866 2.693 2.946 5.753.241 9.191-3.998 5.084-11.927 2.182-11.927-4.365 0-1.667.889-3.889 2-5Zm-31-2c6.233 0 9.156 7.076 4.826 11.686-2.73 2.905-6.509 2.96-9.512.14-2.87-2.697-3.012-7.128-.314-9.826 1.11-1.111 3.333-2 5-2Zm18-18c1.666 0 3.888.889 5 2 1.11 1.111 1.999 3.333 2 5 0 1.667-.889 3.889-2 5-1.111 1.111-3.333 2-5 2-1.667 0-3.89-.889-5-2-1.111-1.111-2-3.333-2-5 0-1.667.889-3.889 2-5 1.11-1.111 3.333-2 5-2Zm67.223 1.557c2.888-2.023 6.649-1.982 8.947.098 2.207 1.997 2.305 4.272.381 8.877-1.169 2.798-1.995 3.468-4.277 3.468-4.648 0-7.274-2.527-7.274-7 0-2.883.574-4.289 2.223-5.443Zm-36.223.443c2.618-2.618 6.793-2.543 9.686.174 2.866 2.693 2.946 5.753.241 9.191-3.998 5.084-11.927 2.182-11.927-4.365 0-1.667.889-3.889 2-5Zm-18-18c4.04-4.04 12-.816 12 4.86 0 3.454-3.704 7.14-7.174 7.14-5.972 0-9.085-7.741-4.826-12Zm36 0c2.878-2.878 7.392-2.589 9.927.635 1.14 1.449 2.072 3.413 2.073 4.365 0 3.002-3.912 7-6.85 7-6.542 0-9.728-7.422-5.15-12Zm33.564 3.707c.376-.986.935-1.541 1.243-1.233.308.307 0 1.114-.683 1.793-.988.98-1.102.865-.56-.56Zm-51.564-21.707c4.169-4.169 12-.697 12 5.32 0 3.051-3.898 6.68-7.174 6.68-5.972 0-9.085-7.741-4.826-12Zm36.223-.443c3.409-2.389 7.319-1.954 9.704 1.078 1.14 1.449 2.072 3.413 2.073 4.365 0 3.222-3.91 7-7.245 7-4.359 0-6.755-2.517-6.755-7.098 0-2.781.591-4.202 2.223-5.345Zm-18-18c3.409-2.389 7.319-1.954 9.704 1.078 2.658 3.378 2.626 6.147-.101 9.051-2.517 2.679-6.421 2.987-9.603.757-1.649-1.154-2.223-2.56-2.223-5.443 0-2.883.574-4.289 2.223-5.443Zm34.977.643c2.256-2.256 2.8-1.197 2.8 5.455 0 6.592-.019 6.638-2 4.845-2.265-2.051-2.754-8.346-.8-10.3Zm-53.2-18.2c4.04-4.04 12-.816 12 4.86 0 3.454-3.704 7.14-7.174 7.14-5.972 0-9.085-7.741-4.826-12Zm36.223-.443c3.409-2.389 7.319-1.954 9.704 1.078 1.14 1.449 2.072 3.413 2.073 4.365 0 3.002-3.912 7-6.85 7-4.529 0-7.15-2.566-7.15-7 0-2.883.574-4.289 2.223-5.443Zm-18.223-17.557c2.878-2.878 7.392-2.589 9.927.635 1.14 1.449 2.072 3.413 2.073 4.365 0 3.002-3.912 7-6.85 7-6.542 0-9.728-7.422-5.15-12Zm18.223-18.443c4.175-2.925 6.311-2.036 8.654 3.602 2.006 4.828 2.038 5.278.479 7-2.072 2.289-7.095 2.387-9.527.186-2.698-2.441-2.466-8.785.394-10.788Zm-18.223-17.557c2.702-2.703 6.572-2.518 9.544.455 3.034 3.032 3.13 6.198.282 9.231-2.582 2.748-7.342 3.062-9.997.659-2.474-2.239-2.383-7.791.171-10.345ZM265.758 41.827c.195.954.337 1.884.428 2.794l.005.063.007.062a117.81 117.81 0 0 0 1.883 11.932c.145.687.298 1.373.459 2.057-41.081 13.312-78.158 31.033-110.298 52.88-28.868 19.623-52.193 41.383-69.693 64.869L82.56 172.8l-15.749 22.049-.213.322c-3.138 4.706-6.026 8.51-8.641 11.523-.21.224-.421.439-.637.645-2.381.2-4.85.696-7.32 1.578-.578.166-1.173.348-1.773.548l-1.008.336a207.9 207.9 0 0 1 3.874-8.371c11.497-23.479 25.12-42.317 45.138-62.411 27.222-27.329 58.157-48.841 99.371-69.106 22.206-10.918 45.637-20.29 70.156-28.086Zm487.614 7.797c3.457-.68 7.434.225 17.73 4.04 43.95 16.284 84.763 48.606 109.559 86.766 6.247 9.614 11.441 19.746 11.441 22.316 0 4.434-8.281 7.553-13.888 5.231-2.012-.835-3.94-3.128-6.199-7.379-15.287-28.762-42.364-57.426-71.053-75.214-11.127-6.9-32.668-17.347-42.093-20.414-7.319-2.382-10.26-4.388-11.198-7.633-.75-2.6 2.573-7.096 5.701-7.713ZM190.883 25.971c2.135-.068 2.54 2.82.775 5.514-2.298 3.507-6.678 5.983-16.056 9.08-23.493 7.753-45.154 18.27-65.5 31.804-17.054 11.344-27.265 19.728-42.03 34.514-14.759 14.776-23.07 24.926-34.568 42.213-7.058 10.611-9.123 13.005-12.729 14.75-5.037 2.439-6.048 2.542-7.523.765-1.45-1.748 3.318-9.795 15.361-25.926 29.491-39.5 65.995-70.01 110.322-92.21 14.316-7.17 23.31-10.941 39.667-16.634 6.049-2.106 11.576-3.848 12.281-3.87ZM139.479 11c2.214-.084 11.536 5.07 13.904 7.688 1.574 1.74 1.082 1.982-11.067 5.425-23.155 6.566-45.334 17.462-64.733 31.802-4.961 3.667-9.686 6.47-10.5 6.227-2.528-.752-13.981-8.4-13.981-9.335.003-1.356 15.306-12.405 25.457-18.378 15.279-8.993 30.444-15.349 49.043-20.558 5.499-1.54 10.843-2.833 11.877-2.871Zm321.956 3.14c11.998.088 23.221.36 30.667.82a664.044 664.044 0 0 1 46.157 4.51 34.12 34.12 0 0 0-4.597 8.615 29.509 29.509 0 0 0-.82 2.32l-3.344 1.18-.207 2.894c-13.462-1.576-27.143-2.745-41.189-3.536a374.627 374.627 0 0 0-7.986-.348l-.246-.241c-5.967-5.72-12.992-7.26-17.87-7.59l-.86-3.44c.037-.36.07-.722.095-1.086.17-1.485.214-2.877.2-4.098Z"/>
  <path d="M263.125 380.25c6.333 2.833 12 6.25 17 10.25a76.68 76.68 0 0 1 13.75 13.75c-.333.833-1 1.333-2 1.5-.833.167-.75.75.25 1.75 4.833 6 9.083 12.417 12.75 19.25 3.833 6.667 7.333 13.75 10.5 21.25a83.078 83.078 0 0 1 .75 17c-.333 5.5-1.167 11.417-2.5 17.75-2.333 4.833-5.25 9.083-8.75 12.75a79.157 79.157 0 0 0-9.5 11.5l3.75 8.25c-.167 1 0 2.167.5 3.5a32.334 32.334 0 0 1 1.75 4.25 19.503 19.503 0 0 1 1.5 4c.333 1.167.25 2.167-.25 3 .5.833 1.417 1.083 2.75.75-.5.167-.917.75-1.25 1.75-.333.833.333 1.083 2 .75-.333 1.5-1 3.167-2 5-.833 2-2.083 3.833-3.75 5.5-1.5 1.833-3.333 3.333-5.5 4.5-2.167 1.333-4.5 2-7 2-2.833-1.5-5.083-2.917-6.75-4.25-1.5-1.333-3.333-3.083-5.5-5.25l-7.75-18c-10.167 4.5-21 8.167-32.5 11s-23.75 4.667-36.75 5.5c-7-2-13.333-4.583-19-7.75a46.213 46.213 0 0 1-14.25-13c.167-2.333.083-4.333-.25-6-.333-1.833-.75-3.5-1.25-5a40.584 40.584 0 0 1-.75-4.75c0-1.667.25-3.583.75-5.75a25.18 25.18 0 0 0-1.066-3.309l-.368-.882a25.18 25.18 0 0 1-1.066-3.309c.333-6.333 1.583-12 3.75-17 2.167-5.167 4.833-9.833 8-14s6.583-8 10.25-11.5c3.833-3.667 7.5-7.167 11-10.5.833.833 1.417 1 1.75.5.333-.667 1.167-.833 2.5-.5 0-.833.333-1.833 1-3 .833-1.333 1.75-2.5 2.75-3.5 1-1.167 2.083-2.083 3.25-2.75 1.333-.667 2.583-.917 3.75-.75 1.5-2.667 3.667-4.917 6.5-6.75l8.5-6c3-2 5.667-4.167 8-6.5s3.75-5.25 4.25-8.75h4.25c-1.833-2.667-2.667-5.333-2.5-8 .167-2.667 1-4.833 2.5-6.5 1.667-1.833 3.917-2.917 6.75-3.25 2.833-.5 6.083.167 9.75 2 1.667.333 2.75.083 3.25-.75.5-1 1.333-1.583 2.5-1.75Zm331.25 2c1.667 2.833 3.75 5.25 6.25 7.25 2.667 1.833 5.583 3.417 8.75 4.75.167 1.167.167 2.083 0 2.75 0 .5-.083 1-.25 1.5v1.75c0 .5.167 1.333.5 2.5-3.5 5.667-7.583 9.583-12.25 11.75-4.5 2-9.417 3.5-14.75 4.5a849.121 849.121 0 0 0-16.5 2.75c-5.5 1-11 3.167-16.5 6.5-2.167-.833-4.167-.833-6 0-1.667.833-4.167 1.083-7.5.75-1 1-2.25 1.75-3.75 2.25-1.5.333-3 .75-4.5 1.25a9.23 9.23 0 0 1 .75 4.75c0 1.5.25 2.75.75 3.75 5.833.5 12.25.417 19.25-.25a307.841 307.841 0 0 1 21-1.25c.167.833.083 1.417-.25 1.75-.333.167-.417.583-.25 1.25 1.167.833 2.333 1.917 3.5 3.25l3.5 3.5c1.167 1.167 2.333 2.167 3.5 3 1.333.667 2.833.917 4.5.75.667 1.333 1.083 2.833 1.25 4.5.333 1.5.167 3.083-.5 4.75a238.6 238.6 0 0 0-8 5.75 71.19 71.19 0 0 1-8.5 5c-2.833 1.5-5.917 2.75-9.25 3.75-3.167.833-6.75 1.167-10.75 1h-2c-.333 0-.833-.25-1.5-.75-1.333.833-3.25 1.083-5.75.75-2.333-.333-4.167-.083-5.5.75-1.833-.833-4.083-1.167-6.75-1-2.5 0-4.75-.333-6.75-1a86.515 86.515 0 0 0-7.25 11.25c-2.167 4-4.083 8.25-5.75 12.75 5.667.833 10.333 1.167 14 1 3.833-.167 7.417-.417 10.75-.75 3.333-.5 6.75-.917 10.25-1.25 3.5-.5 7.917-.667 13.25-.5 3.333-1.833 7.25-3 11.75-3.5 4.667-.667 8.917-1.667 12.75-3 1.333.5 2.5 1.417 3.5 2.75 1 1.167 1.917 2.333 2.75 3.5 1 1 2 1.917 3 2.75s2.25 1.167 3.75 1c.667.667 1.083 1.5 1.25 2.5.333.833.583 1.667.75 2.5a8.96 8.96 0 0 0 .75 2.25c.5.5 1.25.667 2.25.5a.244.244 0 0 1-.014.028 75.306 75.306 0 0 1 2.514-1.778c1-.667 1.833-1.333 2.5-2a68.981 68.981 0 0 0 2.25-3 441.15 441.15 0 0 0 4-5.75l2.25-3.25 3.25 1.75c.667.5 2.083 1 4.25 1.5 2.333.333 4.333.667 6 1 2.833.833 5.5 1.5 8 2 2.5.333 4.5 1.167 6 2.5l1 2c.25 1 .453 1.953.609 2.859l.282 1.782c.156.906.359 1.859.609 2.859a59.37 59.37 0 0 0-1.75 5l-1.5 4.5c-.5 1.167-.833 1.917-1 2.25-.167.333-.25.583-.25.75v.75c.167.167.25.833.25 2l-1 3c-.833 1.167-1.833 2.083-3 2.75a34.192 34.192 0 0 1-3.5 1.75c-.333.333-.833.583-1.5.75-.667.333-1.167.667-1.5 1l-.75 3-3.25.5c-2.833.667-5.25 1-7.25 1h-3c-2-1.833-3.583-3.25-4.75-4.25a31.002 31.002 0 0 0-3.75-2.75c-1.667-2.333-2.583-4-2.75-5a18.63 18.63 0 0 0-.75-3.25c-.333-2.167-.75-3.583-1.25-4.25l-3.5-3.5 3-2.25-2.062-3.56c-2.193 4.215-4.67 7.569-7.438 10.06-3.167 2.833-6.833 5-11 6.5s-8.833 2.667-14 3.5c-5 .833-10.583 1.833-16.75 3-1.5.333-2.75.25-3.75-.25-1-.333-2.167-.5-3.5-.5-3.833.833-8.417 1.583-13.75 2.25s-10.75.917-16.25.75c-5.5-.167-10.75-.917-15.75-2.25-5-1.167-9.083-3.333-12.25-6.5-1.333-1.167-2.25-2.5-2.75-4-.333-1.667-1.417-2.917-3.25-3.75-.167-2.167-.5-4.583-1-7.25s-1-5.417-1.5-8.25c-.5-3-.917-5.917-1.25-8.75-.167-2.833 0-5.417.5-7.75.5-2.5 1.5-4.75 3-6.75 1.667-2 2.25-4.167 1.75-6.5.833-.167 1.333-.583 1.5-1.25.167-.833.833-1.167 2-1 1-3 2.083-5.833 3.25-8.5a350.632 350.632 0 0 1 3.5-7.75c1.333-2.5 2.583-5 3.75-7.5 1.333-2.667 2.583-5.583 3.75-8.75-2.333-2.167-4.083-4.5-5.25-7-1-2.667-1.75-5.25-2.25-7.75-.5-2.667-.917-5.333-1.25-8a51.35 51.35 0 0 0-1.75-8.5c1.667-2.5 3.667-4.5 6-6 2.5-1.667 5.167-3 8-4s5.917-1.833 9.25-2.5a416.047 416.047 0 0 0 10.5-2.25c6.667-2.167 12.583-3.833 17.75-5a190.278 190.278 0 0 1 15.5-2.75c5.167-.833 10.5-1.583 16-2.25s11.75-1.667 18.75-3c1.5 1.5 2.917 2.25 4.25 2.25.667-1.5 1.417-1.917 2.25-1.25 1 .5 1.417 0 1.25-1.5Zm78.75 114c.667.5 2.083 1 4.25 1.5 2.333.333 4.333.667 6 1 2.833.833 5.5 1.5 8 2 2.5.333 4.5 1.167 6 2.5l1 2c.25 1 .453 1.953.609 2.859l.282 1.782c.156.906.359 1.859.609 2.859a59.37 59.37 0 0 0-1.75 5l-1.5 4.5c-.5 1.167-.833 1.917-1 2.25-.167.333-.25.583-.25.75v.75c.167.167.25.833.25 2l-1 3c-.833 1.167-1.833 2.083-3 2.75a34.192 34.192 0 0 1-3.5 1.75c-.333.333-.833.583-1.5.75-.667.333-1.167.667-1.5 1l-.75 3-3.25.5c-2.833.667-5.25 1-7.25 1h-3c-2-1.833-3.583-3.25-4.75-4.25a31.002 31.002 0 0 0-3.75-2.75c-1.667-2.333-2.583-4-2.75-5a18.63 18.63 0 0 0-.75-3.25c-.333-2.167-.75-3.583-1.25-4.25l-3.5-3.5 3-2.25-2.75-4.75c2-1.5 3.5-2.583 4.5-3.25 1-.667 1.833-1.333 2.5-2a68.981 68.981 0 0 0 2.25-3 441.15 441.15 0 0 0 4-5.75l2.25-3.25 3.25 1.75Zm58.5 0c.667.5 2.083 1 4.25 1.5 2.333.333 4.333.667 6 1 2.833.833 5.5 1.5 8 2 2.5.333 4.5 1.167 6 2.5l1 2c.25 1 .453 1.953.609 2.859l.282 1.782c.156.906.359 1.859.609 2.859a59.37 59.37 0 0 0-1.75 5l-1.5 4.5c-.5 1.167-.833 1.917-1 2.25-.167.333-.25.583-.25.75v.75c.167.167.25.833.25 2l-1 3c-.833 1.167-1.833 2.083-3 2.75a34.192 34.192 0 0 1-3.5 1.75c-.333.333-.833.583-1.5.75-.667.333-1.167.667-1.5 1l-.75 3-3.25.5c-2.833.667-5.25 1-7.25 1h-3c-2-1.833-3.583-3.25-4.75-4.25a31.002 31.002 0 0 0-3.75-2.75c-1.667-2.333-2.583-4-2.75-5a18.63 18.63 0 0 0-.75-3.25c-.333-2.167-.75-3.583-1.25-4.25l-3.5-3.5 3-2.25-2.75-4.75c2-1.5 3.5-2.583 4.5-3.25 1-.667 1.833-1.333 2.5-2a68.981 68.981 0 0 0 2.25-3 441.15 441.15 0 0 0 4-5.75l2.25-3.25 3.25 1.75Zm-277-115c2.667 1.667 5 3.5 7 5.5 2.167 2 4.167 4 6 6 .333 3.667.917 6.833 1.75 9.5s1.75 5.25 2.75 7.75a114.056 114.056 0 0 1 2.25 7c.833 2.167 1.417 4.833 1.75 8-1.333 4.333-2.333 8.333-3 12-.5 3.667-1.083 7.5-1.75 11.5-2.667 5.833-5.25 11-7.75 15.5s-4.5 8.417-6 11.75c-.833.833-1.583 1.833-2.25 3-.5 1-1.083 2.083-1.75 3.25-.333.5-.75 1.25-1.25 2.25s-.917 1.667-1.25 2l-5-1.75-1 6.25-3.5 1-2.5 3c-3.167 5.5-6.5 10.167-10 14-3.5 3.667-7.5 7-12 10-4.333 2.833-9.333 5.5-15 8-5.5 2.5-11.75 5.25-18.75 8.25-2.833-.333-5.333-.5-7.5-.5-2-.167-3.917-.333-5.75-.5-3.167 0-7.083-.25-11.75-.75-.5-1.333-1.25-2.25-2.25-2.75s-1.917-.75-2.75-.75c-2.833-1.333-5-3.25-6.5-5.75a207.372 207.372 0 0 1-4-8.5 69.863 69.863 0 0 0-2.5-5 74.196 74.196 0 0 0-2.75-5l4.25-1.25-5.5-6c-.333-.5-.75-.917-1.25-1.25-.5-.5-.917-1-1.25-1.5l-.25-4c-.5-11.5-.75-22-.75-31.5.167-9.667 1.5-18.25 4-25.75v-2.75c.5-3.667 1-6.667 1.5-9 .5-2.5.917-4.833 1.25-7 .5-3.667 1.25-7.083 2.25-10.25 2.333-.5 4.083-1.417 5.25-2.75 1.167-1.5 2.167-2.833 3-4 2.333-.167 3.917.167 4.75 1 .833.833 1.667 2.167 2.5 4a98.167 98.167 0 0 0 3 5c1.333 1.833 3.25 3.25 5.75 4.25.333 1.333.75 2.75 1.25 4.25a59.486 59.486 0 0 1 2 4.5 72.115 72.115 0 0 1 3.5 9c1.167 3 1.833 5.917 2 8.75-1.667 3.167-3 6.833-4 11a106.688 106.688 0 0 0-1.75 12.75 99.512 99.512 0 0 0 .25 12.25c.5 3.833 1.25 7.083 2.25 9.75l1.5 3.25 4.25-.5c5-1.333 9.5-2.75 13.5-4.25 4.167-1.667 8-3.583 11.5-5.75a71.227 71.227 0 0 0 10-7.5c3.167-3 6.5-6.417 10-10.25s6.5-8.167 9-13a89.795 89.795 0 0 0 6.5-15.5c1.833-5.333 3.167-10.583 4-15.75 1-5.333 1.667-10.333 2-15 2.833-1 4.25-3 4.25-6l-.5-2.75c-.667-1-.667-2.167 0-3.5 1-3.167 3.333-5.583 7-7.25Zm-187.5 47.5c-1.167-.167-1.917.083-2.25.75-.333.5-1.167.583-2.5.25l-22.5 16c-7.5 5.167-14.417 11-20.75 17.5-6 5-11.5 10.833-16.5 17.5s-9 14-12 22c1.333.667 2.833 1.083 4.5 1.25 1.833.167 3.5.417 5 .75 8-2.333 16.167-4.5 24.5-6.5 8.5-2 16.667-4.417 24.5-7.25a440.267 440.267 0 0 1-9-11.25c-2.833-3.833-5.167-7.5-7-11 .5-.833.917-1.833 1.25-3a18.76 18.76 0 0 1 1.25-3.25 7.92 7.92 0 0 1 2.25-3c1-.833 2.333-1.25 4-1.25 2.5 1 5.417 1.583 8.75 1.75 3.5.167 6.667.5 9.5 1 2.833 2 5.25 4.417 7.25 7.25 2 2.667 4.083 5.417 6.25 8.25 3-2.833 5.583-5.917 7.75-9.25s3.917-7.167 5.25-11.5c-.833-2.167-1.917-4.667-3.25-7.5a45.87 45.87 0 0 0-4.25-8c-1.667-2.667-3.5-5-5.5-7-2-2.167-4.167-3.667-6.5-4.5ZM701.75 205.5a87.9 87.9 0 0 1 6.75.25c2.167.167 4.167.417 6 .75l2.5 1.75c.5 1 1.167 1.917 2 2.75l3 2.5c2 1.833 4 4 6 6.5s2.75 6.167 2.25 11c-1.333 2-2.333 3.167-3 3.5l-2.25 3-2.5-.25c-1 0-1.917.167-2.75.5a14.31 14.31 0 0 0-2.5.75l-2 1c-.667.167-1.417.333-2.25.5h-3.75a14.02 14.02 0 0 0-2.75-.25c-4.167 0-8.667.333-13.5 1-4.833.5-9.583 1.083-14.25 1.75-3.333.5-6.583.917-9.75 1.25-3 .333-5.75.583-8.25.75-1.167 3.667-2.333 6.917-3.5 9.75a124.574 124.574 0 0 1-3.75 8.25 138.375 138.375 0 0 0-3.75 8.75c-1 2.833-2 5.917-3 9.25-1.667 2.667-3.083 5.167-4.25 7.5-1 2.167-1.833 4.667-2.5 7.5-2 2.5-3.5 5.167-4.5 8-1 2.667-1.75 5-2.25 7l-1 3c-1 1-1.583 1.833-1.75 2.5-.167.5-.583 1-1.25 1.5-.167 1.833-.75 3.667-1.75 5.5a14.31 14.31 0 0 0-.75 2.5c-.167.667-.25 1.167-.25 1.5 0 1.667-.417 2.75-1.25 3.25.167.833.167 1.75 0 2.75l-.5 2.5c-.5 2-.667 3.583-.5 4.75.5.667.917 1.25 1.25 1.75.5.5.833 1.167 1 2 1 .667 1.75 1.083 2.25 1.25.667.5 1.667 1.083 3 1.75l2.25 2.5c.833 4.833.083 8.667-2.25 11.5-2.5 3.167-6.75 4.75-12.75 4.75h-3c-.833-.833-1.333-1.5-1.5-2a168.91 168.91 0 0 1-3.25-1.25c-.833-.333-1.583-1-2.25-2a192.03 192.03 0 0 1-5.25-2.5l-2.25-1.25v-3a18.244 18.244 0 0 1-2.75-5 65.146 65.146 0 0 1-1.25-5.5c-.333-1.5-.75-2.917-1.25-4.25-.333-1.333-.833-2.5-1.5-3.5-.333-9.667.583-17.833 2.75-24.5a430.6 430.6 0 0 1 6.75-19.25l4-10c1.333-3.5 2.5-7.083 3.5-10.75l2.25-2.5a231.096 231.096 0 0 0 2.75-6.5l2.5-5.5c.5-1.167.917-2.25 1.25-3.25.5-1.167.917-2.167 1.25-3-1 0-1.917.083-2.75.25-.833 0-1.667.083-2.5.25-1 .167-1.917.333-2.75.5h-2.5c-1.167 0-2-.083-2.5-.25-1.833.833-3.833 1.25-6 1.25h-4a2.215 2.215 0 0 0-1-.25c-1.667 0-3 .25-4 .75h-8.25c-.333 0-.75.083-1.25.25H583c-1.167 0-2.417-.083-3.75-.25-1.333-.333-2.75-.917-4.25-1.75-2-2.667-3.333-4.083-4-4.25l-2.25-3c-.01-.062-.022-.123-.033-.184a59.993 59.993 0 0 0-5.217.184c-6.333.5-12 .917-17 1.25-1.5-1.5-3.333-2.25-5.5-2.25-2 0-4.167.333-6.5 1a350.233 350.233 0 0 1-6.75 2c-2.167.667-4.25.833-6.25.5-1.667 1.333-3.75 2.25-6.25 2.75-2.333.333-4.917.667-7.75 1-.167.833 0 1.417.5 1.75.5.167.583.667.25 1.5 1 1.167 2.25 2 3.75 2.5l5 1.5c1.833.5 3.417 1.167 4.75 2 1.333.667 2.25 1.833 2.75 3.5 2.5 0 4.667.583 6.5 1.75 1.833 1.167 3.333 2.583 4.5 4.25 1.167 1.667 2 3.5 2.5 5.5.667 1.833 1 3.5 1 5 .5 1.333 1.083 1.917 1.75 1.75.667-.167 1.417.167 2.25 1 .5 2.167 1.75 4.417 3.75 6.75 2 2.167 3.583 4.583 4.75 7.25.333 4.167.583 7.917.75 11.25.167 3.167-.417 6.417-1.75 9.75-2.5 6.167-6 11.667-10.5 16.5-4.333 4.833-9.333 9.167-15 13-5.5 3.667-11.417 6.833-17.75 9.5s-12.5 4.917-18.5 6.75a4.055 4.055 0 0 0-2 0c-.667.167-.833-.25-.5-1.25-1.333 1.167-2.833 1.917-4.5 2.25-1.5.333-3.167.417-5 .25-1.833 0-3.75-.083-5.75-.25-1.833-.167-3.583-.083-5.25.25a62.14 62.14 0 0 1-3.25-3.5c-.833-1-1.5-2.333-2-4-.833 0-1.25-.417-1.25-1.25.167-.833-.083-1.25-.75-1.25 1-1.667 1.417-2.583 1.25-2.75 0-.333-.25-.583-.75-.75l-1-.5c-.333-.333-.417-.75-.25-1.25.667-1.333.917-2.833.75-4.5l-.5-5.5c-.167-1.833-.083-3.583.25-5.25.5-1.667 1.75-3 3.75-4 5.667.667 11 .5 16-.5 5.167-1.167 10-2.75 14.5-4.75s8.75-4.167 12.75-6.5a170.618 170.618 0 0 1 12.25-6.25c.5-1.5 1.167-2.75 2-3.75 1-1 2-1.917 3-2.75s1.917-1.75 2.75-2.75 1.417-2.25 1.75-3.75c.167-1.167-.167-1.833-1-2-.667-.333-1-1-1-2l-2.75-.75c-3.167-1.833-6.75-3.333-10.75-4.5-4-1.333-7.417-2.75-10.25-4.25-1.833 1-3.583 1.25-5.25.75-1.5-.5-3.5-1-6-1.5a172.432 172.432 0 0 1-16.5-1.75 59.767 59.767 0 0 1-15-4.5 9.785 9.785 0 0 0-1.25-2.25c-.5-.667-1.417-.833-2.75-.5-1-1.333-2-2.583-3-3.75a37.03 37.03 0 0 1-2.75-4.25c.333-2 .583-3.667.75-5 .167-1.5-.333-2.917-1.5-4.25.667-2.167 1.167-3.917 1.5-5.25.333-1.333.333-3.083 0-5.25 1.167-3.5 3-6.5 5.5-9 2.667-2.5 5.5-4.583 8.5-6.25a57.128 57.128 0 0 1 9.75-4.5c3.333-1.167 6.5-2.167 9.5-3 6.667-2.833 13.75-5.5 21.25-8 7.667-2.667 15.417-5 23.25-7 8-2 16.167-3.25 24.5-3.75 8.333-.667 17.083.333 26.25 3 .5 1.667 1.25 3.25 2.25 4.75l2.299 3.448c3.694-.072 7.428-.219 11.201-.448 5.5-.5 11.167-1 17-1.5l10-1c3.5-.333 7.083-.667 10.75-1 .667-1.5 1.333-2.917 2-4.25l2.5-1.25c3-.167 5.083.25 6.25 1.25 1.333.833 2.417 1.667 3.25 2.5l11-1c3.833-.5 7.667-1.083 11.5-1.75a595.667 595.667 0 0 1 17-2.25c5.833-.667 11.417-1 16.75-1ZM249.5 205c7 .833 13.25 2.25 18.75 4.25s10.167 4.667 14 8c2.667 4.167 5.167 8.667 7.5 13.5a61.805 61.805 0 0 1 5.5 15.25c1.333 5.167 1.917 10.5 1.75 16 0 5.5-1.167 11.083-3.5 16.75-4.833 6-10.75 10.917-17.75 14.75-6.833 3.667-14.25 6.667-22.25 9s-16.333 4.333-25 6c-8.5 1.667-16.833 3.333-25 5 .167 3.833.167 7.917 0 12.25 0 4.167-.417 8.417-1.25 12.75a63.3 63.3 0 0 1-3.25 12.25c-1.5 4-3.5 7.667-6 11-2.833 0-5.75.333-8.75 1-3 .833-5.667 1.5-8 2a55.434 55.434 0 0 1-3.25-2c-.833-.5-2.083-.833-3.75-1 .333-1.667-.083-3.333-1.25-5l-3.5-5.5c-1.167-1.833-2-3.583-2.5-5.25-.333-1.667.5-3.25 2.5-4.75-1.167-1.167-1.75-2.667-1.75-4.5 1.167-2 2.167-4.75 3-8.25 1-3.5 1.75-6.917 2.25-10.25.667-3.5.833-6.667.5-9.5-.333-2.833-2-4.917-5-6.25.167-.333.5-.5 1-.5s1-.083 1.5-.25c-1.333-1-2.167-2.417-2.5-4.25-.167-1.833-.75-3.417-1.75-4.75a17.8 17.8 0 0 0 .75-2.25c.167-.667.75-.917 1.75-.75-.5-3-.5-5.833 0-8.5a36.5 36.5 0 0 1 2.75-7.5 45.733 45.733 0 0 1 4.25-7.25 172.635 172.635 0 0 0 4.75-7c1.167-.167 1.833 0 2 .5.333.5.917.417 1.75-.25 2.167-1.667 3.667-3.417 4.5-5.25.833-1.833 1.25-3.917 1.25-6.25 1.167-3.5 2.583-7 4.25-10.5 1.667-3.667 3.5-7 5.5-10s4.167-5.667 6.5-8c2.5-2.333 5.083-4.083 7.75-5.25 2-1.667 4.5-3.167 7.5-4.5 3-1.5 6.25-2.583 9.75-3.25 3.5-.833 7-1.25 10.5-1.25 3.667-.167 7 .167 10 1 .833.333 1.25.167 1.25-.5.167-.667.5-1 1-1Zm139-2.75c2 1 4.167 1.667 6.5 2 2.5.333 4.667 1.417 6.5 3.25.167 1.667.667 3 1.5 4 .833.833 1.75 1.667 2.75 2.5a18.01 18.01 0 0 1 2.75 2.25c1 .833 1.667 2 2 3.5.667.167 1.083.083 1.25-.25.333-.333.833-.417 1.5-.25.5 2.333 1.083 3.917 1.75 4.75.667.667 1.333 2.083 2 4.25a28.482 28.482 0 0 0-2 5.25c-.333 1.667-1.333 2.917-3 3.75-.167 1.167.167 1.833 1 2 .833 0 1.333.417 1.5 1.25.167 1.5-.083 2.583-.75 3.25 4 6.5 7.583 13.417 10.75 20.75 3.167 7.167 6.75 14 10.75 20.5-.167 2 0 3.917.5 5.75a69.804 69.804 0 0 0 1.75 5.5 49.927 49.927 0 0 1 2.25 5.25 33.676 33.676 0 0 1 1.5 5.5c.333 2.333.333 4.917 0 7.75a45.853 45.853 0 0 1-1.75 8 33.548 33.548 0 0 1-3.25 7c-1.333 2-2.917 3.5-4.75 4.5-2.333 3-5.167 5.333-8.5 7a48.926 48.926 0 0 0-9.25 6c-1.833 1.167-3.917 2-6.25 2.5-2.167.5-4.417 1-6.75 1.5-1.833 1-4 2.083-6.5 3.25-2.5 1-5.083 2-7.75 3a70.22 70.22 0 0 1-8 2c-2.667.333-5 .417-7 .25-5 1.833-9.917 3-14.75 3.5-4.667.667-10.167.333-16.5-1-6 .833-11.583.583-16.75-.75-5-1.333-9.5-3.417-13.5-6.25-3.833-3-7.25-6.5-10.25-10.5-2.833-4.167-5.167-8.5-7-13-1.333-9.5-1-18.083 1-25.75 2-7.833 4.833-15 8.5-21.5 3.833-6.667 8.167-12.75 13-18.25 4.833-5.667 9.5-11.167 14-16.5 1 .333 1.75.333 2.25 0a8.69 8.69 0 0 0 1.75-1.75c.5-.833 1-1.583 1.5-2.25.667-.667 1.417-1.083 2.25-1.25 1.167-2.5 2.833-4.333 5-5.5a14.525 14.525 0 0 0 5.5-5.5c1.5-.333 2.75-.833 3.75-1.5a18.01 18.01 0 0 0 2.75-2.25c1-.833 2-1.583 3-2.25 1-.833 2.167-1.417 3.5-1.75V223c3-1.333 5.167-2.833 6.5-4.5 1.5-1.833 3.25-4 5.25-6.5 1.5-.167 2.667-.25 3.5-.25 1 0 2.417-.167 4.25-.5 1.333-2.333 2.5-4.083 3.5-5.25 1.167-1.167 2.833-2.417 5-3.75Zm389.75 0c2 1 4.167 1.667 6.5 2 2.5.333 4.667 1.417 6.5 3.25.167 1.667.667 3 1.5 4 .833.833 1.75 1.667 2.75 2.5a18.01 18.01 0 0 1 2.75 2.25c1 .833 1.667 2 2 3.5.667.167 1.083.083 1.25-.25.333-.333.833-.417 1.5-.25.5 2.333 1.083 3.917 1.75 4.75.667.667 1.333 2.083 2 4.25a28.482 28.482 0 0 0-2 5.25c-.333 1.667-1.333 2.917-3 3.75-.167 1.167.167 1.833 1 2 .833 0 1.333.417 1.5 1.25.167 1.5-.083 2.583-.75 3.25 4 6.5 7.583 13.417 10.75 20.75 3.167 7.167 6.75 14 10.75 20.5-.167 2 0 3.917.5 5.75a69.804 69.804 0 0 0 1.75 5.5 49.927 49.927 0 0 1 2.25 5.25 33.676 33.676 0 0 1 1.5 5.5c.333 2.333.333 4.917 0 7.75a45.853 45.853 0 0 1-1.75 8 33.548 33.548 0 0 1-3.25 7c-1.333 2-2.917 3.5-4.75 4.5-2.333 3-5.167 5.333-8.5 7a48.926 48.926 0 0 0-9.25 6c-1.833 1.167-3.917 2-6.25 2.5-2.167.5-4.417 1-6.75 1.5-1.833 1-4 2.083-6.5 3.25-2.5 1-5.083 2-7.75 3a70.22 70.22 0 0 1-8 2c-2.667.333-5 .417-7 .25-5 1.833-9.917 3-14.75 3.5-4.667.667-10.167.333-16.5-1-6 .833-11.583.583-16.75-.75-5-1.333-9.5-3.417-13.5-6.25-3.833-3-7.25-6.5-10.25-10.5-2.833-4.167-5.167-8.5-7-13-1.333-9.5-1-18.083 1-25.75 2-7.833 4.833-15 8.5-21.5 3.833-6.667 8.167-12.75 13-18.25 4.833-5.667 9.5-11.167 14-16.5 1 .333 1.75.333 2.25 0A8.69 8.69 0 0 0 723 248c.5-.833 1-1.583 1.5-2.25.667-.667 1.417-1.083 2.25-1.25 1.167-2.5 2.833-4.333 5-5.5a14.525 14.525 0 0 0 5.5-5.5c1.5-.333 2.75-.833 3.75-1.5a18.01 18.01 0 0 0 2.75-2.25c1-.833 2-1.583 3-2.25 1-.833 2.167-1.417 3.5-1.75V223c3-1.333 5.167-2.833 6.5-4.5 1.5-1.833 3.25-4 5.25-6.5 1.5-.167 2.667-.25 3.5-.25 1 0 2.417-.167 4.25-.5 1.333-2.333 2.5-4.083 3.5-5.25 1.167-1.167 2.833-2.417 5-3.75Zm-687 6.5c.833.5 2 1 3.5 1.5 1.5.333 3.083.75 4.75 1.25 3 .667 5.833 1.417 8.5 2.25s4.833 2.083 6.5 3.75c1 2.667 1.583 4.667 1.75 6 .167 1.333.417 2.667.75 4 .5 2.833.917 5.667 1.25 8.5.5 2.833.833 6 1 9.5a78.468 78.468 0 0 1 2 8.5c.667 2.667 1.25 5.417 1.75 8.25.833 4 1.667 7.917 2.5 11.75a69.965 69.965 0 0 0 3.25 10.5c1.333 0 2.167.083 2.5.25a14.31 14.31 0 0 1 2.5-.75c1-.167 2.083-.333 3.25-.5l2.75-.25 1 2.5c.167.833 1 1.667 2.5 2.5 2.167.167 3.75.667 4.75 1.5a18.01 18.01 0 0 1 2.75 2.25c.667.667 1.333 1.167 2 1.5l3.75 1.5-2 3.75c-1.667 3-4.083 5.917-7.25 8.75-3 2.667-6.417 4.917-10.25 6.75.167 1 .25 2 .25 3 .167.833.417 1.75.75 2.75.5 2.833.917 5.75 1.25 8.75.333 3 .333 6.083 0 9.25l-.5 1c-1 2.833-2.5 5.75-4.5 8.75-1.833 2.833-4.083 5.417-6.75 7.75-2.5 2.167-5.333 4-8.5 5.5a26.035 26.035 0 0 1-10 2.5c-2.167-.5-3.667-1.083-4.5-1.75-.667-.5-1.417-1-2.25-1.5-.5-.333-1-.583-1.5-.75a3.933 3.933 0 0 0-1-.75l-3-1.25 1-3.25c.333-1.333.25-2.333-.25-3-.5-.833-1.5-1.917-3-3.25l-1.5-1.5c-.5-.5-.917-1-1.25-1.5l-4.25-4.75 6.75-1.75c4.167-1.167 6.917-2.667 8.25-4.5 1.5-1.833 2.083-4.917 1.75-9.25-3.333-.667-6.167-.75-8.5-.25-2.167.5-4.417 1.083-6.75 1.75-3 .833-6.083 1.583-9.25 2.25-3 .5-6.333.75-10 .75H66a216.446 216.446 0 0 0-3.75-.5l-2.5-.5c-.333-1.833-.667-2.833-1-3l-1-1c-.833-.833-1.75-1.917-2.75-3.25-.833-1.5-1-3.333-.5-5.5-.833-1.5-1.333-3-1.5-4.5-1 2-1.75 4.083-2.25 6.25l-1 2.5-2.5.5c-.333.167-.583.583-.75 1.25-.167.5-.25.917-.25 1.25L45 327l-1 1a3.933 3.933 0 0 0-1 .75c-.333 1.5-.75 3-1.25 4.5s-1 2.917-1.5 4.25A100.2 100.2 0 0 0 38 344c-.5 2-.667 4-.5 6l-1 2.75c-.833 1-1.75 1.833-2.75 2.5l-3 1.5c-.333.333-.833.667-1.5 1a9.68 9.68 0 0 0-1.25.5l-.75 2.75-3 .5c-1.833.333-3.167.583-4 .75-.667.167-1.5.25-2.5.25l-2.5-.25c-1.833-1.5-3.25-2.667-4.25-3.5-1-1-2.167-1.917-3.5-2.75-1.5-2-2.333-3.5-2.5-4.5-.167-1-.333-1.917-.5-2.75-.333-1-.5-1.833-.5-2.5-.167-.667-.417-1.167-.75-1.5l-3.25-3 2.75-2.25.25-4.25a416.161 416.161 0 0 1 10.5-24.5c3.833-7.833 7.75-15.833 11.75-24a172.517 172.517 0 0 0 3.75-8l4-8c-.167-.5-.25-1.083-.25-1.75s.167-1.417.5-2.25c1.833-2.833 3.333-5.333 4.5-7.5l3.5-7a386.87 386.87 0 0 1 4-8.25c1.5-2.667 3.333-5.417 5.5-8.25l4-1.75a23.97 23.97 0 0 1 1.75-.5c.667-.333 1.417-.5 2.25-.5l3.75.5c4.667-2.167 8.75-5.167 12.25-9 3.5-4 7.083-8.75 10.75-14.25l2.5-3.5 3.25 2Zm297 50.25c-.333.667-.917 1.333-1.75 2s-1.75.5-2.75-.5c-.333 1.333-.917 2.333-1.75 3-.833.5-1.75.75-2.75.75-1-.167-2.083-.417-3.25-.75-1-.5-1.917-1.083-2.75-1.75a856.032 856.032 0 0 1-14.5 11.25 72.397 72.397 0 0 0-13 12.75c-.667.333-1.083.5-1.25.5-.167-.167-.667-.083-1.5.25a41.08 41.08 0 0 1-5 8.75 311.456 311.456 0 0 0-5.5 7.75 52.88 52.88 0 0 0-4.75 8.5c-1.333 3-2.083 6.5-2.25 10.5 2.833 2.333 6.167 3.75 10 4.25s7.75.583 11.75.25c4.167-.333 8.167-.833 12-1.5 4-.833 7.667-1.25 11-1.25 7-1.667 13-3.833 18-6.5 5-2.833 10.25-5.667 15.75-8.5.667-1.833 1.5-3.333 2.5-4.5 1.167-1.167 1.833-2.917 2-5.25-.833-1.333-1.333-2.333-1.5-3-.167-.833-.25-2.083-.25-3.75a101.008 101.008 0 0 1-9.5-16.5c-2.667-6-5.667-11.583-9-16.75ZM778 259c-.333.667-.917 1.333-1.75 2s-1.75.5-2.75-.5c-.333 1.333-.917 2.333-1.75 3-.833.5-1.75.75-2.75.75-1-.167-2.083-.417-3.25-.75-1-.5-1.917-1.083-2.75-1.75A856.032 856.032 0 0 1 748.5 273a72.397 72.397 0 0 0-13 12.75c-.667.333-1.083.5-1.25.5-.167-.167-.667-.083-1.5.25a41.08 41.08 0 0 1-5 8.75 311.456 311.456 0 0 0-5.5 7.75 52.88 52.88 0 0 0-4.75 8.5c-1.333 3-2.083 6.5-2.25 10.5 2.833 2.333 6.167 3.75 10 4.25s7.75.583 11.75.25c4.167-.333 8.167-.833 12-1.5 4-.833 7.667-1.25 11-1.25 7-1.667 13-3.833 18-6.5 5-2.833 10.25-5.667 15.75-8.5.667-1.833 1.5-3.333 2.5-4.5 1.167-1.167 1.833-2.917 2-5.25-.833-1.333-1.333-2.333-1.5-3-.167-.833-.25-2.083-.25-3.75a101.008 101.008 0 0 1-9.5-16.5c-2.667-6-5.667-11.583-9-16.75Zm-693.75 4.25c-3.333 3.5-6.583 7.417-9.75 11.75-3 4.333-5.583 8.417-7.75 12.25l-3 4.5c-1 1.5-1.917 3-2.75 4.5 1-.167 1.917-.25 2.75-.25 1 0 1.917-.083 2.75-.25 5-.333 9.5-.667 13.5-1 4.167-.5 8.75-1.25 13.75-2.25-1.167-5-2.417-10.167-3.75-15.5a462.076 462.076 0 0 0-4.25-16.25l-1.5 2.5Zm159-16.5c-4.5-.333-9.083.083-13.75 1.25-4.5 1-8.417 3-11.75 6-1 3-1.833 5.417-2.5 7.25-.667 1.667-1.583 3.75-2.75 6.25.333.833.833 1.5 1.5 2a3.02 3.02 0 0 1 1.75 1.75c3.833-2 7.667-3.083 11.5-3.25 4-.333 8-1.417 12-3.25 4.167-1.833 8.583-3.25 13.25-4.25 4.833-1.167 8.833-3.25 12-6.25-2-1.833-4.917-3.417-8.75-4.75-3.833-1.5-8-2.417-12.5-2.75ZM418 0c2 3.5 4.583 6.417 7.75 8.75 3.167 2.167 6.667 4.083 10.5 5.75.167 1.5.167 2.583 0 3.25 0 .667-.083 1.333-.25 2-.167.5-.25 1.167-.25 2 0 .667.167 1.667.5 3-2.667 4.5-5.75 8-9.25 10.5-3.333 2.5-6.917 4.417-10.75 5.75-3.833 1.333-7.917 2.333-12.25 3-4.167.667-8.5 1.417-13 2.25-4.333.667-8.75 1.667-13.25 3s-8.917 3.333-13.25 6c-1.333-.5-2.583-.667-3.75-.5-1 0-2.083.167-3.25.5-1.167.333-2.5.667-4 1-1.333.333-3 .333-5 0-1.333 1.167-2.917 2-4.75 2.5-1.667.5-3.417 1-5.25 1.5.833 1.833 1.167 3.667 1 5.5 0 1.833.25 3.417.75 4.75 7 .667 14.75.667 23.25 0 8.5-.833 16.833-1.417 25-1.75.167.833.083 1.417-.25 1.75-.333.333-.5.917-.5 1.75 1.5 1 2.917 2.25 4.25 3.75l4 4.5c1.5 1.333 3 2.5 4.5 3.5 1.5.833 3.25 1.167 5.25 1a19.469 19.469 0 0 1 1.75 5.25c.333 1.833.083 3.75-.75 5.75a202.771 202.771 0 0 0-9.75 6.75 99.12 99.12 0 0 1-10 6c-3.333 1.833-7 3.333-11 4.5-4 1.167-8.333 1.667-13 1.5h-2.25c-.5 0-1.167-.333-2-1-1.667.833-3.917 1.167-6.75 1-2.667-.333-4.917-.083-6.75.75-2.333-.833-5.083-1.25-8.25-1.25-3 0-5.667-.417-8-1.25-3 4.333-5.833 8.917-8.5 13.75-2.667 4.667-5 9.667-7 15 6.833 1 12.5 1.417 17 1.25 4.5-.167 8.75-.5 12.75-1s8.083-1 12.25-1.5c4.333-.5 9.583-.667 15.75-.5 4.167-2 8.917-3.333 14.25-4 5.5-.833 10.583-2 15.25-3.5 1.667.5 3.083 1.5 4.25 3a40.802 40.802 0 0 1 3.25 4.25c1.167 1.333 2.333 2.5 3.5 3.5 1.167 1 2.667 1.333 4.5 1a5.173 5.173 0 0 1 1.5 3c.333 1.167.583 2.25.75 3.25.333 1 .75 1.833 1.25 2.5.5.5 1.417.667 2.75.5-3.167 6.5-6.75 11.5-10.75 15-3.833 3.5-8.25 6.25-13.25 8.25-4.833 1.833-10.333 3.25-16.5 4.25-6 .833-12.75 1.917-20.25 3.25-1.833.333-3.417.333-4.75 0a9.42 9.42 0 0 0-3.75-.75c-4.667.833-10.25 1.667-16.75 2.5a123.14 123.14 0 0 1-19.25 1c-6.5-.167-12.75-1-18.75-2.5s-11-4.167-15-8c-1.333-1.333-2.333-2.917-3-4.75-.5-1.833-1.833-3.333-4-4.5-.333-2.5-.833-5.333-1.5-8.5a208.87 208.87 0 0 0-1.75-10c-.5-3.5-.917-6.917-1.25-10.25-.167-3.5 0-6.667.5-9.5.333-1.5.833-2.917 1.5-4.25a111.805 111.805 0 0 0 2.25-3.75c.833-1.333 1.417-2.667 1.75-4 .5-1.333.583-2.667.25-4 1-.167 1.583-.667 1.75-1.5.333-1 1.167-1.333 2.5-1 1.167-3.667 2.417-7.083 3.75-10.25A156 156 0 0 1 290.5 91l4.5-9c1.667-3.167 3.167-6.667 4.5-10.5-2.833-2.667-4.917-5.5-6.25-8.5a67.968 67.968 0 0 1-2.75-9.5A93.52 93.52 0 0 1 289 44c-.333-3.333-1-6.667-2-10 2-3 4.417-5.417 7.25-7.25A37.35 37.35 0 0 1 303.5 22c3.5-1.333 7.25-2.333 11.25-3 4-.833 8.25-1.75 12.75-2.75 8-2.5 15.167-4.417 21.5-5.75 6.333-1.5 12.5-2.667 18.5-3.5 6-1 12.25-1.833 18.75-2.5 6.5-.833 14-2 22.5-3.5.167.5.417.75.75.75h1.75c.5 1.167 1.417 1.75 2.75 1.75 0-.5-.083-.917-.25-1.25V1c.333 0 .75.083 1.25.25.667.167 1.167.333 1.5.5.5.167.917.167 1.25 0 .333-.333.417-.917.25-1.75Zm144 31.25c2.667 1.667 5 3.5 7 5.5 2.167 2 4.167 4 6 6 .333 3.667.917 6.833 1.75 9.5s1.75 5.25 2.75 7.75a114.056 114.056 0 0 1 2.25 7c.833 2.167 1.417 4.833 1.75 8-1.333 4.333-2.333 8.333-3 12-.5 3.667-1.083 7.5-1.75 11.5-2.667 5.833-5.25 11-7.75 15.5s-4.5 8.417-6 11.75c-.833.833-1.583 1.833-2.25 3-.5 1-1.083 2.083-1.75 3.25-.333.5-.75 1.25-1.25 2.25s-.917 1.667-1.25 2l-5-1.75-1 6.25-3.5 1-2.5 3c-3.167 5.5-6.5 10.167-10 14-3.5 3.667-7.5 7-12 10-4.333 2.833-9.333 5.5-15 8-5.5 2.5-11.75 5.25-18.75 8.25-2.833-.333-5.333-.5-7.5-.5-2-.167-3.917-.333-5.75-.5-3.167 0-7.083-.25-11.75-.75-.5-1.333-1.25-2.25-2.25-2.75s-1.917-.75-2.75-.75c-2.833-1.333-5-3.25-6.5-5.75a207.372 207.372 0 0 1-4-8.5 69.863 69.863 0 0 0-2.5-5 74.196 74.196 0 0 0-2.75-5l4.25-1.25-5.5-6c-.333-.5-.75-.917-1.25-1.25-.5-.5-.917-1-1.25-1.5l-.25-4c-.5-11.5-.75-22-.75-31.5.167-9.667 1.5-18.25 4-25.75V81.5c.5-3.667 1-6.667 1.5-9 .5-2.5.917-4.833 1.25-7 .5-3.667 1.25-7.083 2.25-10.25 2.333-.5 4.083-1.417 5.25-2.75 1.167-1.5 2.167-2.833 3-4 2.333-.167 3.917.167 4.75 1 .833.833 1.667 2.167 2.5 4a98.298 98.298 0 0 0 3 5c1.333 1.833 3.25 3.25 5.75 4.25a57.75 57.75 0 0 0 1.25 4.25 59.594 59.594 0 0 1 2 4.5 72.151 72.151 0 0 1 3.5 9c1.167 3 1.833 5.917 2 8.75-1.667 3.167-3 6.833-4 11A106.688 106.688 0 0 0 476.5 113a99.512 99.512 0 0 0 .25 12.25c.5 3.833 1.25 7.083 2.25 9.75l1.5 3.25 4.25-.5c5-1.333 9.5-2.75 13.5-4.25 4.167-1.667 8-3.583 11.5-5.75a71.227 71.227 0 0 0 10-7.5c3.167-3 6.5-6.417 10-10.25s6.5-8.167 9-13a89.785 89.785 0 0 0 6.5-15.5c1.833-5.333 3.167-10.583 4-15.75 1-5.333 1.667-10.333 2-15 2.833-1 4.25-3 4.25-6L555 42c-.667-1-.667-2.167 0-3.5 1-3.167 3.333-5.583 7-7.25Z"/>
</svg>
